<svg xmlns="http://www.w3.org/2000/svg" version="1.1" xmlns:xlink="http://www.w3.org/1999/xlink" xmlns:svgjs="http://svgjs.com/svgjs" width="1440" height="560" preserveAspectRatio="none" viewBox="0 0 1440 560"><g mask="url(&quot;#SvgjsMask1195&quot;)" fill="none"><rect width="1440" height="560" x="0" y="0" fill="rgba(0, 6, 32, 1)"></rect><path d="M -491.9233076654113,167 C -395.92,219.2 -203.92,417.6 -11.923307665411293,428 C 180.08,438.4 276.08,217 468.0766923345887,219 C 660.08,221 756.08,451 948.0766923345888,438 C 1140.08,425 1329.69,152 1428.0766923345886,154 C 1526.46,156 1437.62,389.2 1440,448" stroke="rgba(233, 243, 8, 0.58)" stroke-width="2"></path><path d="M -298.8906166528311,351 C -202.89,334.6 -10.89,256.8 181.1093833471689,269 C 373.11,281.2 469.11,438 661.1093833471689,412 C 853.11,386 949.11,142.4 1141.109383347169,139 C 1333.11,135.6 1561.33,373 1621.109383347169,395 C 1680.89,417 1476.22,278.2 1440,249" stroke="rgba(233, 243, 8, 0.58)" stroke-width="2"></path><path d="M -278.76053966887287,238 C -182.76,260.8 9.24,379.8 201.23946033112716,352 C 393.24,324.2 489.24,88 681.2394603311271,99 C 873.24,110 969.24,407.2 1161.2394603311272,407 C 1353.24,406.8 1585.49,113.6 1641.2394603311272,98 C 1696.99,82.4 1480.25,282.8 1440,329" stroke="rgba(233, 243, 8, 0.58)" stroke-width="2"></path><path d="M -438.36044571446286,304 C -342.36,280 -150.36,181.4 41.639554285537166,184 C 233.64,186.6 329.64,326.6 521.6395542855372,317 C 713.64,307.4 809.64,127 1001.6395542855372,136 C 1193.64,145 1393.97,352.6 1481.639554285537,362 C 1569.31,371.4 1448.33,218.8 1440,183" stroke="rgba(233, 243, 8, 0.58)" stroke-width="2"></path></g><defs><mask id="SvgjsMask1195"><rect width="1440" height="560" fill="#ffffff"></rect></mask></defs></svg>