<svg xmlns="http://www.w3.org/2000/svg" version="1.1" xmlns:xlink="http://www.w3.org/1999/xlink" xmlns:svgjs="http://svgjs.com/svgjs" width="1440" height="560" preserveAspectRatio="none" viewBox="0 0 1440 560"><g mask="url(&quot;#SvgjsMask1004&quot;)" fill="none"><rect width="1440" height="560" x="0" y="0" fill="rgba(255, 255, 255, 1)"></rect><path d="M1560 560L0 560 L0 283.39Q72.5 283.88, 72 356.38Q139.32 303.7, 192 371.03Q219.49 278.52, 312 306.01Q338.84 260.85, 384 287.69Q476.47 260.16, 504 352.64Q570.86 299.5, 624 366.36Q633.73 304.09, 696 313.82Q723.21 269.03, 768 296.25Q797.09 253.34, 840 282.43Q890.91 261.35, 912 312.26Q994.11 274.37, 1032 356.48Q1037.27 289.75, 1104 295.02Q1133.7 252.73, 1176 282.43Q1249.66 236.1, 1296 309.76Q1351.81 293.57, 1368 349.38Q1375.37 284.75, 1440 292.11Q1506.02 238.13, 1560 304.15z" fill="#182f5d"></path><path d="M1560 560L0 560 L0 394.68Q40 362.68, 72 402.68Q117.9 376.58, 144 422.48Q185 343.48, 264 384.47Q307.99 356.46, 336 400.44Q378.64 323.08, 456 365.72Q497.77 335.49, 528 377.26Q602.42 331.68, 648 406.1Q681.99 320.09, 768 354.08Q814.73 328.81, 840 375.54Q896.97 360.51, 912 417.49Q920.72 354.21, 984 362.92Q1027.05 333.97, 1056 377.01Q1127.24 376.25, 1128 447.5Q1179.95 379.46, 1248 431.41Q1278.68 342.1, 1368 372.78Q1417.43 350.21, 1440 399.64Q1520.87 360.51, 1560 441.38z" fill="#25467d"></path><path d="M1464 560L0 560 L0 436.48Q46.09 410.57, 72 456.66Q114.32 426.98, 144 469.3Q190.23 395.53, 264 441.76Q292.96 398.72, 336 427.68Q420.13 391.81, 456 475.94Q529.07 429, 576 502.07Q606.93 413, 696 443.93Q740.22 416.15, 768 460.37Q841.69 414.06, 888 487.76Q957.19 436.95, 1008 506.15Q1020.36 446.51, 1080 458.87Q1100.6 407.47, 1152 428.07Q1197.78 401.85, 1224 447.63Q1302.66 406.29, 1344 484.96Q1376.18 397.14, 1464 429.33z" fill="#356cb1"></path><path d="M1488 560L0 560 L0 568.44Q33.45 529.89, 72 563.35Q80.72 500.07, 144 508.78Q185.69 478.47, 216 520.16Q284.84 469, 336 537.84Q392.28 522.12, 408 578.4Q433.31 531.71, 480 557.02Q499.8 504.82, 552 524.61Q578.51 479.13, 624 505.64Q680.89 490.53, 696 547.42Q749.02 528.44, 768 581.46Q792.35 485.81, 888 510.16Q966.48 468.64, 1008 547.12Q1051.27 518.39, 1080 561.66Q1100.29 509.95, 1152 530.25Q1221.37 479.62, 1272 548.98Q1279.77 484.75, 1344 492.52Q1400.45 476.97, 1416 533.43Q1473.33 518.76, 1488 576.09z" fill="rgba(247, 255, 159, 1)"></path></g><defs><mask id="SvgjsMask1004"><rect width="1440" height="560" fill="#ffffff"></rect></mask></defs></svg>