<svg xmlns="http://www.w3.org/2000/svg" version="1.1" xmlns:xlink="http://www.w3.org/1999/xlink" xmlns:svgjs="http://svgjs.com/svgjs" width="1440" height="560" preserveAspectRatio="none" viewBox="0 0 1440 560"><g mask="url(&quot;#SvgjsMask1015&quot;)" fill="none"><rect width="1440" height="560" x="0" y="0" fill="rgba(255, 255, 255, 1)"></rect><path d="M -450.24443896685335,242 C -354.24,279.2 -162.24,420.8 29.755561033146627,428 C 221.76,435.2 317.76,296.4 509.75556103314665,278 C 701.76,259.6 797.76,351.8 989.7555610331466,336 C 1181.76,320.2 1379.71,185.6 1469.7555610331467,199 C 1559.8,212.4 1445.95,362.2 1440,403" stroke="rgba(104, 47, 223, 1)" stroke-width="2"></path><path d="M -765.0602592336031,296 C -669.06,278.2 -477.06,197.8 -285.06025923360306,207 C -93.06,216.2 2.94,332.2 194.93974076639694,342 C 386.94,351.8 482.94,234.8 674.9397407663969,256 C 866.94,277.2 1001.93,456.4 1154.9397407663969,448 C 1307.95,439.6 1382.99,260.8 1440,214" stroke="rgba(104, 47, 223, 1)" stroke-width="2"></path><path d="M -45.661254166076446,278 C 50.34,309.6 242.34,468.6 434.33874583392355,436 C 626.34,403.4 722.34,115.2 914.3387458339236,115 C 1106.34,114.8 1202.34,442.8 1394.3387458339234,435 C 1586.34,427.2 1865.21,100 1874.3387458339234,76 C 1883.47,52 1526.87,267.2 1440,315" stroke="rgba(104, 47, 223, 1)" stroke-width="2"></path></g><defs><mask id="SvgjsMask1015"><rect width="1440" height="560" fill="#ffffff"></rect></mask></defs></svg>