<svg xmlns="http://www.w3.org/2000/svg" version="1.1" xmlns:xlink="http://www.w3.org/1999/xlink" xmlns:svgjs="http://svgjs.com/svgjs" width="1440" height="560" preserveAspectRatio="none" viewBox="0 0 1440 560"><g mask="url(&quot;#SvgjsMask1084&quot;)" fill="none"><rect width="1440" height="560" x="0" y="0" fill="rgba(249, 249, 249, 1)"></rect><g transform="translate(0, 0)" stroke-linecap="round"><path d="M408 227.48 L408 332.52" stroke-width="36" stroke="rgba(132, 69, 219, 1)"></path><path d="M456 168.68 L456 204.68" stroke-width="36" stroke="rgba(248, 255, 77, 1)"></path><path d="M456 258.68 L456 294.68" stroke-width="36" stroke="rgba(248, 255, 77, 1)"></path><path d="M456 348.68 L456 391.32" stroke-width="36" stroke="rgba(248, 255, 77, 1)"></path><path d="M504 258.01 L504 301.99" stroke-width="36" stroke="rgba(2, 23, 111, 1)"></path><path d="M552 266.3 L552 293.7" stroke-width="36" stroke="rgba(132, 69, 219, 1)"></path><path d="M600 243.76 L600 316.24" stroke-width="36" stroke="rgba(132, 69, 219, 1)"></path><path d="M648 164 L648 200" stroke-width="36" stroke="rgba(2, 23, 111, 1)"></path><path d="M648 254 L648 290" stroke-width="36" stroke="rgba(248, 255, 77, 1)"></path><path d="M648 344 L648 396" stroke-width="36" stroke="rgba(2, 23, 111, 1)"></path><path d="M696 183.85 L696 376.15" stroke-width="36" stroke="rgba(2, 23, 111, 1)"></path><path d="M744 232.06 L744 327.94" stroke-width="36" stroke="rgba(248, 255, 77, 1)"></path><path d="M792 163.59 L792 199.59" stroke-width="36" stroke="rgba(2, 23, 111, 1)"></path><path d="M792 253.59 L792 289.59000000000003" stroke-width="36" stroke="rgba(2, 23, 111, 1)"></path><path d="M792 343.59000000000003 L792 396.41" stroke-width="36" stroke="rgba(2, 23, 111, 1)"></path><path d="M840 240.3 L840 319.7" stroke-width="36" stroke="rgba(2, 23, 111, 1)"></path><path d="M888 228.78 L888 331.22" stroke-width="36" stroke="rgba(132, 69, 219, 1)"></path><path d="M936 163.75 L936 199.75" stroke-width="36" stroke="rgba(248, 255, 77, 1)"></path><path d="M936 253.75 L936 396.25" stroke-width="36" stroke="rgba(132, 69, 219, 1)"></path><path d="M984 276.93 L984 283.07" stroke-width="36" stroke="rgba(132, 69, 219, 1)"></path><path d="M1032 199.84 L1032 360.16" stroke-width="36" stroke="rgba(2, 23, 111, 1)"></path></g></g><defs><mask id="SvgjsMask1084"><rect width="1440" height="560" fill="#ffffff"></rect></mask></defs></svg>