<svg xmlns="http://www.w3.org/2000/svg" version="1.1" xmlns:xlink="http://www.w3.org/1999/xlink" xmlns:svgjs="http://svgjs.com/svgjs" width="1440" height="560" preserveAspectRatio="none" viewBox="0 0 1440 560"><g mask="url(&quot;#SvgjsMask1018&quot;)" fill="none"><rect width="1440" height="560" x="0" y="0" fill="rgba(255, 255, 255, 1)"></rect><path d="M1303 123L1302 -226" stroke-width="6" stroke="url(#SvgjsLinearGradient1019)" stroke-linecap="round" class="Down"></path><path d="M1252 40L1251 -183" stroke-width="10" stroke="url(#SvgjsLinearGradient1020)" stroke-linecap="round" class="Up"></path><path d="M299 77L298 492" stroke-width="10" stroke="url(#SvgjsLinearGradient1019)" stroke-linecap="round" class="Down"></path><path d="M105 479L104 261" stroke-width="10" stroke="url(#SvgjsLinearGradient1019)" stroke-linecap="round" class="Down"></path><path d="M1257 237L1256 412" stroke-width="8" stroke="url(#SvgjsLinearGradient1019)" stroke-linecap="round" class="Down"></path><path d="M1139 118L1138 -75" stroke-width="6" stroke="url(#SvgjsLinearGradient1020)" stroke-linecap="round" class="Up"></path><path d="M1284 293L1283 706" stroke-width="6" stroke="url(#SvgjsLinearGradient1020)" stroke-linecap="round" class="Up"></path><path d="M420 398L419 767" stroke-width="10" stroke="url(#SvgjsLinearGradient1019)" stroke-linecap="round" class="Down"></path><path d="M198 208L197 473" stroke-width="8" stroke="url(#SvgjsLinearGradient1020)" stroke-linecap="round" class="Up"></path><path d="M796 421L795 706" stroke-width="6" stroke="url(#SvgjsLinearGradient1020)" stroke-linecap="round" class="Up"></path><path d="M89 434L88 69" stroke-width="8" stroke="url(#SvgjsLinearGradient1020)" stroke-linecap="round" class="Up"></path><path d="M170 281L169 595" stroke-width="6" stroke="url(#SvgjsLinearGradient1019)" stroke-linecap="round" class="Down"></path><path d="M37 456L36 814" stroke-width="10" stroke="url(#SvgjsLinearGradient1020)" stroke-linecap="round" class="Up"></path><path d="M1154 467L1153 723" stroke-width="10" stroke="url(#SvgjsLinearGradient1019)" stroke-linecap="round" class="Down"></path><path d="M273 411L272 72" stroke-width="10" stroke="url(#SvgjsLinearGradient1020)" stroke-linecap="round" class="Up"></path><path d="M260 450L259 609" stroke-width="6" stroke="url(#SvgjsLinearGradient1020)" stroke-linecap="round" class="Up"></path><path d="M89 118L88 -197" stroke-width="10" stroke="url(#SvgjsLinearGradient1019)" stroke-linecap="round" class="Down"></path><path d="M1193 283L1192 663" stroke-width="6" stroke="url(#SvgjsLinearGradient1019)" stroke-linecap="round" class="Down"></path><path d="M1406 242L1405 -12" stroke-width="10" stroke="url(#SvgjsLinearGradient1019)" stroke-linecap="round" class="Down"></path><path d="M185 105L184 472" stroke-width="6" stroke="url(#SvgjsLinearGradient1020)" stroke-linecap="round" class="Up"></path><path d="M155 382L154 567" stroke-width="10" stroke="url(#SvgjsLinearGradient1020)" stroke-linecap="round" class="Up"></path><path d="M133 75L132 -296" stroke-width="8" stroke="url(#SvgjsLinearGradient1019)" stroke-linecap="round" class="Down"></path><path d="M647 257L646 448" stroke-width="6" stroke="url(#SvgjsLinearGradient1019)" stroke-linecap="round" class="Down"></path><path d="M656 236L655 -6" stroke-width="8" stroke="url(#SvgjsLinearGradient1020)" stroke-linecap="round" class="Up"></path><path d="M548 51L547 423" stroke-width="8" stroke="url(#SvgjsLinearGradient1019)" stroke-linecap="round" class="Down"></path><path d="M1386 376L1385 696" stroke-width="8" stroke="url(#SvgjsLinearGradient1019)" stroke-linecap="round" class="Down"></path><path d="M29 139L28 334" stroke-width="8" stroke="url(#SvgjsLinearGradient1020)" stroke-linecap="round" class="Up"></path><path d="M155 157L154 -155" stroke-width="10" stroke="url(#SvgjsLinearGradient1019)" stroke-linecap="round" class="Down"></path><path d="M944 14L943 290" stroke-width="6" stroke="url(#SvgjsLinearGradient1020)" stroke-linecap="round" class="Up"></path><path d="M1006 67L1005 346" stroke-width="10" stroke="url(#SvgjsLinearGradient1020)" stroke-linecap="round" class="Up"></path><path d="M748 241L747 -31" stroke-width="6" stroke="url(#SvgjsLinearGradient1019)" stroke-linecap="round" class="Down"></path><path d="M948 547L947 179" stroke-width="8" stroke="url(#SvgjsLinearGradient1019)" stroke-linecap="round" class="Down"></path><path d="M609 145L608 529" stroke-width="10" stroke="url(#SvgjsLinearGradient1019)" stroke-linecap="round" class="Down"></path><path d="M961 206L960 -145" stroke-width="8" stroke="url(#SvgjsLinearGradient1019)" stroke-linecap="round" class="Down"></path><path d="M942 412L941 99" stroke-width="6" stroke="url(#SvgjsLinearGradient1020)" stroke-linecap="round" class="Up"></path><path d="M949 494L948 204" stroke-width="8" stroke="url(#SvgjsLinearGradient1019)" stroke-linecap="round" class="Down"></path></g><defs><mask id="SvgjsMask1018"><rect width="1440" height="560" fill="#ffffff"></rect></mask><linearGradient x1="0%" y1="0%" x2="0%" y2="100%" id="SvgjsLinearGradient1019"><stop stop-color="rgba(226, 94, 94, 0)" offset="0"></stop><stop stop-color="rgba(226, 94, 94, 1)" offset="1"></stop></linearGradient><linearGradient x1="0%" y1="100%" x2="0%" y2="0%" id="SvgjsLinearGradient1020"><stop stop-color="rgba(226, 94, 94, 0)" offset="0"></stop><stop stop-color="rgba(226, 94, 94, 1)" offset="1"></stop></linearGradient></defs></svg>