<svg xmlns="http://www.w3.org/2000/svg" version="1.1" xmlns:xlink="http://www.w3.org/1999/xlink" xmlns:svgjs="http://svgjs.com/svgjs" width="1440" height="560" preserveAspectRatio="none" viewBox="0 0 1440 560"><g mask="url(&quot;#SvgjsMask2385&quot;)" fill="none"><rect width="1440" height="560" x="0" y="0" fill="url(#SvgjsLinearGradient2386)"></rect><path d="M1440 0L1162.1100000000001 0L1440 13.38z" fill="rgba(255, 255, 255, .1)"></path><path d="M1162.1100000000001 0L1440 13.38L1440 151.22L1162.0000000000002 0z" fill="rgba(255, 255, 255, .075)"></path><path d="M1162 0L1440 151.22L1440 217.14L471.54999999999995 0z" fill="rgba(255, 255, 255, .05)"></path><path d="M471.54999999999995 0L1440 217.14L1440 369.33L243.16999999999996 0z" fill="rgba(255, 255, 255, .025)"></path><path d="M0 560L601.07 560L0 326.33000000000004z" fill="rgba(0, 0, 0, .1)"></path><path d="M0 326.33000000000004L601.07 560L781.9000000000001 560L0 171.42000000000004z" fill="rgba(0, 0, 0, .075)"></path><path d="M0 171.42000000000002L781.9000000000001 560L851.5800000000002 560L0 89.26000000000002z" fill="rgba(0, 0, 0, .05)"></path><path d="M0 89.25999999999999L851.5800000000002 560L1140.2600000000002 560L0 46.599999999999994z" fill="rgba(0, 0, 0, .025)"></path></g><defs><mask id="SvgjsMask2385"><rect width="1440" height="560" fill="#ffffff"></rect></mask><linearGradient x1="15.28%" y1="-39.29%" x2="84.72%" y2="139.29%" gradientUnits="userSpaceOnUse" id="SvgjsLinearGradient2386"><stop stop-color="rgba(14, 42, 71, 1)" offset="0.06"></stop><stop stop-color="rgba(2, 37, 82, 1)" offset="0.24"></stop><stop stop-color="rgba(234, 238, 243, 1)" offset="0.71"></stop></linearGradient></defs></svg>